<?xml version="1.0" encoding="UTF-8" standalone="no"?>
<!-- Created with Inkscape (http://www.inkscape.org/) -->

<svg
   xmlns:dc="http://purl.org/dc/elements/1.1/"
   xmlns:cc="http://creativecommons.org/ns#"
   xmlns:rdf="http://www.w3.org/1999/02/22-rdf-syntax-ns#"
   xmlns:svg="http://www.w3.org/2000/svg"
   xmlns="http://www.w3.org/2000/svg"
   xmlns:sodipodi="http://sodipodi.sourceforge.net/DTD/sodipodi-0.dtd"
   xmlns:inkscape="http://www.inkscape.org/namespaces/inkscape"
   width="50"
   height="50"
   viewBox="0 0 50.000001 50.000001"
   id="svg2"
   version="1.1"
   inkscape:version="0.91 r13725"
   sodipodi:docname="CrawlKit.svg"
   inkscape:export-filename="/Users/joscha/Documents/CrawlKit.png"
   inkscape:export-xdpi="388.76999"
   inkscape:export-ydpi="388.76999">
  <defs
     id="defs4" />
  <sodipodi:namedview
     id="base"
     pagecolor="#ffffff"
     bordercolor="#666666"
     borderopacity="1.0"
     inkscape:pageopacity="0.0"
     inkscape:pageshadow="2"
     inkscape:zoom="2.6404834"
     inkscape:cx="40.196794"
     inkscape:cy="10.532019"
     inkscape:document-units="px"
     inkscape:current-layer="layer1"
     showgrid="false"
     fit-margin-top="0"
     fit-margin-left="0"
     fit-margin-right="0"
     fit-margin-bottom="0"
     inkscape:window-width="1280"
     inkscape:window-height="706"
     inkscape:window-x="0"
     inkscape:window-y="1"
     inkscape:window-maximized="1"
     units="px"
     showborder="true" />
  <metadata
     id="metadata7">
    <rdf:RDF>
      <cc:Work
         rdf:about="">
        <dc:format>image/svg+xml</dc:format>
        <dc:type
           rdf:resource="http://purl.org/dc/dcmitype/StillImage" />
        <dc:title></dc:title>
      </cc:Work>
    </rdf:RDF>
  </metadata>
  <g
     inkscape:label="Ebene 1"
     inkscape:groupmode="layer"
     id="layer1"
     transform="translate(-542.11942,-484.74208)">
    <g
       id="g4368"
       transform="translate(1.85,-4.75)">
      <g
         transform="matrix(0.4467341,0,0,0.4467341,288.86278,289.32857)"
         id="g4362">
        <path
           style="fill:#000000"
           inkscape:connector-curvature="0"
           d="m 599.02843,537.1267 c 0,3.386 2.358,5.156 4.688,5.156 2.33,0 4.688,-1.771 4.688,-5.156 0,-2.267 1.412,-3.281 2.812,-3.281 1.4,0 2.812,1.014 2.812,3.281 0,3.386 2.358,5.156 4.688,5.156 2.33,0 4.688,-1.771 4.688,-5.156 0,-2.267 1.412,-3.281 2.812,-3.281 1.4,0 2.812,1.014 2.812,3.281 0,3.386 2.358,5.156 4.688,5.156 2.33,0 4.688,-1.771 4.688,-5.156 l 0.022,-33.728 c 0,-10.809 -8.749,-19.605 -19.534,-19.7 -0.053,-0.009 -0.099,-0.031 -0.154,-0.031 -10.867,0 -19.709,8.842 -19.709,19.709 l 0,33.75 z m 19.605,-51.579 c 0.028,0.002 0.053,0.017 0.083,0.017 9.834,0 17.834,8 17.834,17.834 l -0.022,33.728 c 0,2.267 -1.412,3.281 -2.812,3.281 -1.4,0 -2.812,-1.014 -2.812,-3.281 0,-6.771 -9.375,-6.771 -9.375,0 0,2.267 -1.412,3.281 -2.812,3.281 -1.4,0 -2.812,-1.014 -2.812,-3.281 0,-6.771 -9.375,-6.771 -9.375,0 0,2.267 -1.412,3.281 -2.812,3.281 -1.4,0 -2.812,-1.014 -2.812,-3.281 l 0,-33.75 c -0.002,-9.8 7.941,-17.772 17.727,-17.829 z"
           id="path4196" />
        <ellipse
           style="fill:#000000"
           cx="609.34143"
           cy="508.0647"
           rx="1.875"
           ry="2.812"
           id="ellipse4198" />
        <ellipse
           style="fill:#000000"
           cx="628.09143"
           cy="508.0647"
           rx="1.875"
           ry="2.812"
           id="ellipse4200" />
        <path
           style="fill:#000000"
           inkscape:connector-curvature="0"
           d="m 607.84943,513.4917 c -0.354,0.467 -0.471,1.073 -0.313,1.637 0.079,0.286 2.049,6.999 11.181,6.999 9.133,0 11.102,-6.712 11.182,-6.999 0.156,-0.563 0.041,-1.17 -0.315,-1.637 -0.354,-0.465 -0.906,-0.74 -1.492,-0.74 l -18.75,0 c -0.587,0 -1.138,0.275 -1.493,0.74 z"
           id="path4202" />
      </g>
      <g
         transform="translate(541.21942,490.94208)"
         id="g4296">
        <g
           id="g4298">
          <path
             id="path4300"
             d="m 46.1,43.8 -44.2,0 c -0.5,0 -1,-0.399 -1,-1 l 0,-38.5 c 0,-0.5 0.4,-1 1,-1 l 44.3,0 c 0.5,0 1,0.4 1,1 l 0,38.5 c -0.1,0.6 -0.5,1 -1.1,1 z m -43.3,-1.9 42.3,0 0,-36.6 -42.3,0 0,36.6 z"
             inkscape:connector-curvature="0" />
        </g>
        <g
           id="g4302">
          <path
             id="path4304"
             d="m 46.1,12.7 -44.2,0 c -0.5,0 -1,-0.4 -1,-1 0,-0.6 0.4,-1 1,-1 l 44.3,0 c 0.5,0 1,0.4 1,1 0,0.6 -0.5,1 -1.1,1 z"
             inkscape:connector-curvature="0" />
        </g>
        <g
           id="g4306">
          <circle
             id="circle4308"
             r="1.3"
             cy="8"
             cx="5.5999999" />
        </g>
        <g
           id="g4310">
          <circle
             id="circle4312"
             r="1.3"
             cy="8"
             cx="9.6999998" />
        </g>
        <g
           id="g4314">
          <path
             id="path4316"
             d="m 42.5,9.4 -26.7,0 c -0.5,0 -1,-0.4 -1,-1 0,-0.5 0.4,-1 1,-1 l 26.8,0 c 0.5,0 1,0.4 1,1 -0.1,0.5 -0.5,1 -1.1,1 z"
             inkscape:connector-curvature="0" />
        </g>
      </g>
    </g>
  </g>
</svg>
