<svg xmlns="http://www.w3.org/2000/svg" xmlns:xlink="http://www.w3.org/1999/xlink" version="1.1" x="0px" y="0px" viewBox="0 0 100 125" enable-background="new 0 0 100 100" xml:space="preserve"><path fill="#000000" d="M30.312,76.975c0,3.386,2.358,5.156,4.688,5.156s4.688-1.771,4.688-5.156c0-2.267,1.412-3.281,2.812-3.281  s2.812,1.014,2.812,3.281c0,3.386,2.358,5.156,4.688,5.156s4.688-1.771,4.688-5.156c0-2.267,1.412-3.281,2.812-3.281  s2.812,1.014,2.812,3.281c0,3.386,2.358,5.156,4.688,5.156s4.688-1.771,4.688-5.156l0.022-33.728c0-10.809-8.749-19.605-19.534-19.7  c-0.053-0.009-0.099-0.031-0.154-0.031c-10.867,0-19.709,8.842-19.709,19.709V76.975z M49.917,25.396  c0.028,0.002,0.053,0.017,0.083,0.017c9.834,0,17.834,8,17.834,17.834l-0.022,33.728c0,2.267-1.412,3.281-2.812,3.281  s-2.812-1.014-2.812-3.281c0-6.771-9.375-6.771-9.375,0c0,2.267-1.412,3.281-2.812,3.281s-2.812-1.014-2.812-3.281  c0-6.771-9.375-6.771-9.375,0c0,2.267-1.412,3.281-2.812,3.281s-2.812-1.014-2.812-3.281v-33.75  C32.188,33.425,40.131,25.453,49.917,25.396z"/><ellipse fill="#000000" cx="40.625" cy="47.913" rx="1.875" ry="2.812"/><ellipse fill="#000000" cx="59.375" cy="47.913" rx="1.875" ry="2.812"/><path fill="#000000" d="M39.133,53.34c-0.354,0.467-0.471,1.073-0.313,1.637c0.079,0.286,2.049,6.999,11.181,6.999  c9.133,0,11.102-6.712,11.182-6.999c0.156-0.563,0.041-1.17-0.315-1.637c-0.354-0.465-0.906-0.74-1.492-0.74h-18.75  C40.039,52.6,39.488,52.875,39.133,53.34z"/><text x="0" y="115" fill="#000000" font-size="5px" font-weight="bold" font-family="'Helvetica Neue', Helvetica, Arial-Unicode, Arial, Sans-serif">Created by Julien Deveaux</text><text x="0" y="120" fill="#000000" font-size="5px" font-weight="bold" font-family="'Helvetica Neue', Helvetica, Arial-Unicode, Arial, Sans-serif">from the Noun Project</text></svg>