<svg xmlns="http://www.w3.org/2000/svg" xmlns:xlink="http://www.w3.org/1999/xlink" version="1.1" x="0px" y="0px" viewBox="0 0 48 60" enable-background="new 0 0 48 48" xml:space="preserve"><g><g><path d="M46.1,43.8H1.9c-0.5,0-1-0.399-1-1V4.3c0-0.5,0.4-1,1-1h44.3c0.5,0,1,0.4,1,1v38.5C47.1,43.4,46.7,43.8,46.1,43.8z     M2.8,41.9h42.3V5.3H2.8V41.9z"/></g><g><path d="M46.1,12.7H1.9c-0.5,0-1-0.4-1-1c0-0.6,0.4-1,1-1h44.3c0.5,0,1,0.4,1,1C47.2,12.3,46.7,12.7,46.1,12.7z"/></g><g><circle cx="5.6" cy="8" r="1.3"/></g><g><circle cx="9.7" cy="8" r="1.3"/></g><g><path d="M42.5,9.4H15.8c-0.5,0-1-0.4-1-1c0-0.5,0.4-1,1-1h26.8c0.5,0,1,0.4,1,1C43.5,8.9,43.1,9.4,42.5,9.4z"/></g></g><text x="0" y="63" fill="#000000" font-size="5px" font-weight="bold" font-family="'Helvetica Neue', Helvetica, Arial-Unicode, Arial, Sans-serif">Created by Cassandra Cappello</text><text x="0" y="68" fill="#000000" font-size="5px" font-weight="bold" font-family="'Helvetica Neue', Helvetica, Arial-Unicode, Arial, Sans-serif">from the Noun Project</text></svg>